<svg width="400" height="500" viewBox="0 0 400 500" xmlns="http://www.w3.org/2000/svg">
  <!-- 海洋背景 -->
  <rect width="400" height="500" fill="#e0f2fe"/>
  
  <!-- 台灣本島 -->
  <path d="M 200 40 
           C 220 45, 240 55, 255 70
           C 270 85, 280 105, 285 125
           C 290 145, 295 165, 300 185
           C 305 205, 310 225, 315 245
           C 320 265, 325 285, 320 305
           C 315 325, 310 345, 300 365
           C 285 385, 270 400, 250 410
           C 230 420, 210 425, 190 420
           C 170 415, 150 405, 135 390
           C 120 375, 110 355, 105 335
           C 100 315, 105 295, 110 275
           C 115 255, 125 235, 140 220
           C 155 205, 175 195, 195 190
           C 215 185, 235 180, 250 170
           C 265 160, 275 145, 280 125
           C 275 105, 265 85, 250 70
           C 235 55, 215 45, 200 40 Z" 
        fill="#f8fafc" 
        stroke="#64748b" 
        stroke-width="2"/>
  
  <!-- 縣市邊界線 -->
  <!-- 北部 -->
  <line x1="200" y1="60" x2="240" y2="90" stroke="#94a3b8" stroke-width="1"/>
  <line x1="185" y1="80" x2="220" y2="100" stroke="#94a3b8" stroke-width="1"/>
  <line x1="170" y1="100" x2="210" y2="120" stroke="#94a3b8" stroke-width="1"/>
  
  <!-- 中部 -->
  <line x1="155" y1="150" x2="250" y2="180" stroke="#94a3b8" stroke-width="1"/>
  <line x1="150" y1="180" x2="240" y2="210" stroke="#94a3b8" stroke-width="1"/>
  <line x1="145" y1="210" x2="230" y2="240" stroke="#94a3b8" stroke-width="1"/>
  
  <!-- 南部 -->
  <line x1="140" y1="270" x2="220" y2="300" stroke="#94a3b8" stroke-width="1"/>
  <line x1="135" y1="300" x2="210" y2="330" stroke="#94a3b8" stroke-width="1"/>
  <line x1="140" y1="330" x2="200" y2="360" stroke="#94a3b8" stroke-width="1"/>
  
  <!-- 東部邊界 -->
  <line x1="280" y1="120" x2="290" y2="200" stroke="#94a3b8" stroke-width="1"/>
  <line x1="285" y1="200" x2="295" y2="280" stroke="#94a3b8" stroke-width="1"/>
  <line x1="290" y1="280" x2="280" y2="360" stroke="#94a3b8" stroke-width="1"/>
  
  <!-- 澎湖群島 -->
  <circle cx="80" cy="280" r="8" fill="#f8fafc" stroke="#64748b" stroke-width="1"/>
  <circle cx="75" cy="275" r="4" fill="#f8fafc" stroke="#64748b" stroke-width="1"/>
  <circle cx="85" cy="275" r="3" fill="#f8fafc" stroke="#64748b" stroke-width="1"/>
  
  <!-- 金門 -->
  <circle cx="50" cy="250" r="6" fill="#f8fafc" stroke="#64748b" stroke-width="1"/>
  
  <!-- 馬祖 -->
  <circle cx="120" cy="30" r="4" fill="#f8fafc" stroke="#64748b" stroke-width="1"/>
  
  <!-- 縣市名稱標籤 -->
  <text x="200" y="85" text-anchor="middle" class="text-xs font-medium" fill="#1e293b">台北</text>
  <text x="180" y="110" text-anchor="middle" class="text-xs font-medium" fill="#1e293b">桃園</text>
  <text x="165" y="140" text-anchor="middle" class="text-xs font-medium" fill="#1e293b">新竹</text>
  <text x="150" y="170" text-anchor="middle" class="text-xs font-medium" fill="#1e293b">苗栗</text>
  <text x="160" y="200" text-anchor="middle" class="text-xs font-medium" fill="#1e293b">台中</text>
  <text x="145" y="230" text-anchor="middle" class="text-xs font-medium" fill="#1e293b">彰化</text>
  <text x="175" y="245" text-anchor="middle" class="text-xs font-medium" fill="#1e293b">南投</text>
  <text x="135" y="260" text-anchor="middle" class="text-xs font-medium" fill="#1e293b">雲林</text>
  <text x="130" y="290" text-anchor="middle" class="text-xs font-medium" fill="#1e293b">嘉義</text>
  <text x="125" y="320" text-anchor="middle" class="text-xs font-medium" fill="#1e293b">台南</text>
  <text x="135" y="350" text-anchor="middle" class="text-xs font-medium" fill="#1e293b">高雄</text>
  <text x="155" y="380" text-anchor="middle" class="text-xs font-medium" fill="#1e293b">屏東</text>
  <text x="250" y="140" text-anchor="middle" class="text-xs font-medium" fill="#1e293b">宜蘭</text>
  <text x="270" y="220" text-anchor="middle" class="text-xs font-medium" fill="#1e293b">花蓮</text>
  <text x="260" y="320" text-anchor="middle" class="text-xs font-medium" fill="#1e293b">台東</text>
  <text x="80" y="295" text-anchor="middle" class="text-xs font-medium" fill="#1e293b">澎湖</text>
  <text x="50" y="270" text-anchor="middle" class="text-xs font-medium" fill="#1e293b">金門</text>
  <text x="120" y="50" text-anchor="middle" class="text-xs font-medium" fill="#1e293b">馬祖</text>
</svg>





